<svg xmlns="http://www.w3.org/2000/svg" width="176" height="30" viewBox="0 0 176 30" fill="none">
<path d="M41.297 6.91334H44.4717C44.3758 3.41902 41.2863 0.883512 36.8545 0.883512C32.4759 0.883512 29.1201 3.38706 29.1201 7.14772C29.1201 10.1839 31.2934 11.9631 34.7984 12.9112L37.3765 13.6143C39.7096 14.2322 41.51 14.9993 41.51 16.9382C41.51 19.0689 39.4752 20.4751 36.6734 20.4751C34.1379 20.4751 32.0285 19.3459 31.8367 16.9702H28.5342C28.7472 20.9226 31.8048 23.3622 36.6947 23.3622C41.819 23.3622 44.77 20.6669 44.77 16.9702C44.77 13.0391 41.265 11.5156 38.4951 10.8338L36.3644 10.2798C34.6599 9.84303 32.3907 9.04402 32.4014 6.95596C32.4014 5.10226 34.0953 3.72797 36.7799 3.72797C39.2835 3.72797 41.0626 4.89985 41.297 6.91334Z" fill="#1D1D1D"/>
<path d="M54.7408 23.3302C59.3537 23.3302 62.3687 19.9531 62.3687 14.8927C62.3687 9.80042 59.3537 6.42329 54.7408 6.42329C50.1279 6.42329 47.113 9.80042 47.113 14.8927C47.113 19.9531 50.1279 23.3302 54.7408 23.3302ZM54.7515 20.6562C51.7366 20.6562 50.3303 18.0248 50.3303 14.8821C50.3303 11.75 51.7366 9.08664 54.7515 9.08664C57.7451 9.08664 59.1513 11.75 59.1513 14.8821C59.1513 18.0248 57.7451 20.6562 54.7515 20.6562Z" fill="#1D1D1D"/>
<path d="M65.3242 23H68.5096V12.9112C68.5096 10.706 70.0543 9.17186 71.8654 9.17186C73.6339 9.17186 74.859 10.3437 74.859 12.1229V23H78.0338V12.5703C78.0338 10.5994 79.2376 9.17186 81.315 9.17186C82.9982 9.17186 84.3832 10.1094 84.3832 12.3253V23H87.5686V12.027C87.5686 8.28763 85.4805 6.42329 82.5188 6.42329C80.1644 6.42329 78.396 7.55254 77.6076 9.2997H77.4372C76.7234 7.50993 75.2213 6.42329 73.0373 6.42329C70.8747 6.42329 69.266 7.49928 68.5842 9.2997H68.3818V6.63635H65.3242V23Z" fill="#1D1D1D"/>
<path d="M98.2905 23.3302C101.859 23.3302 104.384 21.5724 105.109 18.9091L102.094 18.3658C101.518 19.9105 100.134 20.6989 98.3224 20.6989C95.5952 20.6989 93.7628 18.9304 93.6775 15.777H105.311V14.6477C105.311 8.73507 101.774 6.42329 98.0667 6.42329C93.5071 6.42329 90.5028 9.8963 90.5028 14.9247C90.5028 20.0064 93.4645 23.3302 98.2905 23.3302ZM93.6882 13.3906C93.816 11.0682 95.4993 9.05468 98.0881 9.05468C100.56 9.05468 102.179 10.8871 102.19 13.3906H93.6882Z" fill="#1D1D1D"/>
<path d="M115.884 6.63635H112.528V2.7159H109.343V6.63635H106.946V9.19317H109.343V18.8558C109.332 21.8281 111.601 23.2663 114.115 23.2131C115.127 23.2024 115.809 23.0106 116.182 22.8721L115.607 20.2408C115.394 20.2834 115 20.3792 114.488 20.3792C113.455 20.3792 112.528 20.0383 112.528 18.1953V9.19317H115.884V6.63635Z" fill="#1D1D1D"/>
<path d="M122.344 13.2841C122.344 10.674 123.996 9.18252 126.265 9.18252C128.459 9.18252 129.77 10.5781 129.77 12.9751V23H132.955V12.5916C132.955 8.51135 130.718 6.42329 127.351 6.42329C124.805 6.42329 123.271 7.53124 122.504 9.2997H122.302V1.18181H119.159V23H122.344V13.2841Z" fill="#1D1D1D"/>
<path d="M136.606 23H139.791V6.63635H136.606V23ZM138.215 4.1115C139.312 4.1115 140.228 3.25922 140.228 2.21519C140.228 1.17115 139.312 0.308228 138.215 0.308228C137.107 0.308228 136.201 1.17115 136.201 2.21519C136.201 3.25922 137.107 4.1115 138.215 4.1115Z" fill="#1D1D1D"/>
<path d="M146.662 13.2841C146.662 10.674 148.26 9.18252 150.476 9.18252C152.639 9.18252 153.949 10.5994 153.949 12.9751V23H157.134V12.5916C157.134 8.54331 154.908 6.42329 151.563 6.42329C149.102 6.42329 147.493 7.5632 146.737 9.2997H146.534V6.63635H143.477V23H146.662V13.2841Z" fill="#1D1D1D"/>
<path d="M167.667 29.4773C171.833 29.4773 175.05 27.5703 175.05 23.3622V6.63635H171.928V9.28905H171.694C171.129 8.27698 170 6.42329 166.953 6.42329C163.001 6.42329 160.092 9.54473 160.092 14.7543C160.092 19.9744 163.065 22.755 166.932 22.755C169.936 22.755 171.097 21.0611 171.673 20.017H171.875V23.2344C171.875 25.8018 170.117 26.9098 167.699 26.9098C165.046 26.9098 164.013 25.5781 163.448 24.6406L160.71 25.7699C161.573 27.7727 163.757 29.4773 167.667 29.4773ZM167.635 20.1129C164.791 20.1129 163.31 17.929 163.31 14.7116C163.31 11.5689 164.759 9.12925 167.635 9.12925C170.416 9.12925 171.907 11.3984 171.907 14.7116C171.907 18.0888 170.384 20.1129 167.635 20.1129Z" fill="#1D1D1D"/>
<circle cx="8.5" cy="13.5" r="8.5" fill="#AB92F7"/>
</svg>