<svg
  xmlns="http://www.w3.org/2000/svg"
  xmlns:xlink="http://www.w3.org/1999/xlink"
>
  <defs>
    <symbol
      stroke-width="0"
      stroke="currentColor"
      fill="currentColor"
      viewBox="0 0 512 512"
      id="i-search"
      height="1em"
      width="1em"
    >
      <path
        d="M337.509 305.372h-17.501l-6.571-5.486c20.791-25.232 33.922-57.054 33.922-93.257C347.358 127.632 283.896 64 205.135 64 127.452 64 64 127.632 64 206.629s63.452 142.628 142.225 142.628c35.011 0 67.831-13.167 92.991-34.008l6.561 5.487v17.551L415.18 448 448 415.086 337.509 305.372zm-131.284 0c-54.702 0-98.463-43.887-98.463-98.743 0-54.858 43.761-98.742 98.463-98.742 54.7 0 98.462 43.884 98.462 98.742 0 54.856-43.762 98.743-98.462 98.743z"
      />
    </symbol>
    <symbol
      id="i-phone"
      stroke="currentColor"
      fill="currentColor"
      stroke-width="0"
      viewBox="0 0 24 24"
      height="1em"
      width="1em"
      xmlns="http://www.w3.org/2000/svg"
    >
      <path fill="none" d="M0 0h24v24H0z"></path>
      <path
        d="M6.62 10.79c1.44 2.83 3.76 5.14 6.59 6.59l2.2-2.2c.27-.27.67-.36 1.02-.24 1.12.37 2.33.57 3.57.57.55 0 1 .45 1 1V20c0 .55-.45 1-1 1-9.39 0-17-7.61-17-17 0-.55.45-1 1-1h3.5c.55 0 1 .45 1 1 0 1.25.2 2.45.57 3.57.11.35.03.74-.25 1.02l-2.2 2.2z"
      ></path>
    </symbol>
    <symbol
      id="i-heart"
      stroke="currentColor"
      fill="none"
      stroke-width="0"
      viewBox="0 0 24 24"
      height="1em"
      width="1em"
      xmlns="http://www.w3.org/2000/svg"
    >
      <path
        stroke-linecap="round"
        stroke-linejoin="round"
        stroke-width="2"
        d="M4.318 6.318a4.5 4.5 0 000 6.364L12 20.364l7.682-7.682a4.5 4.5 0 00-6.364-6.364L12 7.636l-1.318-1.318a4.5 4.5 0 00-6.364 0z"
      ></path>
    </symbol>
    <symbol
      id="i-menu"
      stroke="currentColor"
      fill="currentColor"
      stroke-width="0"
      viewBox="0 0 1024 1024"
      height="1em"
      width="1em"
      xmlns="http://www.w3.org/2000/svg"
    >
      <path
        d="M904 160H120c-4.4 0-8 3.6-8 8v64c0 4.4 3.6 8 8 8h784c4.4 0 8-3.6 8-8v-64c0-4.4-3.6-8-8-8zm0 624H120c-4.4 0-8 3.6-8 8v64c0 4.4 3.6 8 8 8h784c4.4 0 8-3.6 8-8v-64c0-4.4-3.6-8-8-8zm0-312H120c-4.4 0-8 3.6-8 8v64c0 4.4 3.6 8 8 8h784c4.4 0 8-3.6 8-8v-64c0-4.4-3.6-8-8-8z"
      ></path>
    </symbol>
    <symbol
      id="i-arrow-down"
      stroke="currentColor"
      fill="none"
      stroke-width="2"
      viewBox="0 0 24 24"
      stroke-linecap="round"
      stroke-linejoin="round"
      height="1em"
      width="1em"
      xmlns="http://www.w3.org/2000/svg"
    >
      <line x1="12" y1="5" x2="12" y2="19"></line>
      <polyline points="19 12 12 19 5 12"></polyline>
    </symbol>
    <symbol
      id="i-arrow-right"
      stroke="currentColor"
      fill="currentColor"
      stroke-width="0"
      viewBox="0 0 20 20"
      height="1em"
      width="1em"
      xmlns="http://www.w3.org/2000/svg"
    >
      <path
        fill-rule="evenodd"
        d="M10.293 3.293a1 1 0 011.414 0l6 6a1 1 0 010 1.414l-6 6a1 1 0 01-1.414-1.414L14.586 11H3a1 1 0 110-2h11.586l-4.293-4.293a1 1 0 010-1.414z"
        clip-rule="evenodd"
      ></path>
    </symbol>
    <symbol
      id="i-arrow-left"
      stroke="currentColor"
      fill="none"
      stroke-width="0"
      viewBox="0 0 24 24"
      height="1em"
      width="1em"
      xmlns="http://www.w3.org/2000/svg"
    >
      <path
        stroke-linecap="round"
        stroke-linejoin="round"
        stroke-width="2"
        d="M10 19l-7-7m0 0l7-7m-7 7h18"
      ></path>
    </symbol>
    <symbol
      id="i-location"
      stroke="currentColor"
      fill="currentColor"
      stroke-width="0"
      viewBox="0 0 24 24"
      height="1em"
      width="1em"
      xmlns="http://www.w3.org/2000/svg"
    >
      <path fill="none" d="M0 0h24v24H0z"></path>
      <path
        d="M12 2C8.13 2 5 5.13 5 9c0 5.25 7 13 7 13s7-7.75 7-13c0-3.87-3.13-7-7-7zm0 9.5a2.5 2.5 0 010-5 2.5 2.5 0 010 5z"
      ></path>
    </symbol>
    <symbol
      id="i-file"
      stroke="currentColor"
      fill="currentColor"
      stroke-width="0"
      viewBox="0 0 16 16"
      height="1em"
      width="1em"
      xmlns="http://www.w3.org/2000/svg"
    >
      <path
        d="M9.293 0H4a2 2 0 0 0-2 2v12a2 2 0 0 0 2 2h8a2 2 0 0 0 2-2V4.707A1 1 0 0 0 13.707 4L10 .293A1 1 0 0 0 9.293 0zM9.5 3.5v-2l3 3h-2a1 1 0 0 1-1-1zM4.5 9a.5.5 0 0 1 0-1h7a.5.5 0 0 1 0 1h-7zM4 10.5a.5.5 0 0 1 .5-.5h7a.5.5 0 0 1 0 1h-7a.5.5 0 0 1-.5-.5zm.5 2.5a.5.5 0 0 1 0-1h4a.5.5 0 0 1 0 1h-4z"
      ></path>
    </symbol>
    <symbol
      id="i-left"
      stroke="currentColor"
      fill="none"
      stroke-width="2"
      viewBox="0 0 24 24"
      stroke-linecap="round"
      stroke-linejoin="round"
      height="1em"
      width="1em"
      xmlns="http://www.w3.org/2000/svg"
    >
      <polyline points="15 18 9 12 15 6"></polyline>
    </symbol>
    <symbol
      id="i-circle-checked"
      stroke="currentColor"
      fill="currentColor"
      stroke-width="0"
      viewBox="0 0 16 16"
      height="1em"
      width="1em"
      xmlns="http://www.w3.org/2000/svg"
    >
      <path
        d="M16 8A8 8 0 1 1 0 8a8 8 0 0 1 16 0zm-3.97-3.03a.75.75 0 0 0-1.08.022L7.477 9.417 5.384 7.323a.75.75 0 0 0-1.06 1.06L6.97 11.03a.75.75 0 0 0 1.079-.02l3.992-4.99a.75.75 0 0 0-.01-1.05z"
      ></path>
    </symbol>
    <symbol
      id="i-filter"
      stroke="currentColor"
      fill="none"
      stroke-width="2"
      viewBox="0 0 24 24"
      stroke-linecap="round"
      stroke-linejoin="round"
      height="1em"
      width="1em"
      xmlns="http://www.w3.org/2000/svg"
    >
      <line x1="4" y1="21" x2="4" y2="14"></line>
      <line x1="4" y1="10" x2="4" y2="3"></line>
      <line x1="12" y1="21" x2="12" y2="12"></line>
      <line x1="12" y1="8" x2="12" y2="3"></line>
      <line x1="20" y1="21" x2="20" y2="16"></line>
      <line x1="20" y1="12" x2="20" y2="3"></line>
      <line x1="1" y1="14" x2="7" y2="14"></line>
      <line x1="9" y1="8" x2="15" y2="8"></line>
      <line x1="17" y1="16" x2="23" y2="16"></line>
    </symbol>
    <symbol
      id="i-close"
      stroke="currentColor"
      fill="currentColor"
      stroke-width="0"
      viewBox="0 0 512 512"
      height="1em"
      width="1em"
      xmlns="http://www.w3.org/2000/svg"
    >
      <path
        d="M400 145.49L366.51 112 256 222.51 145.49 112 112 145.49 222.51 256 112 366.51 145.49 400 256 289.49 366.51 400 400 366.51 289.49 256 400 145.49z"
      ></path>
    </symbol>
  </defs>
</svg>
